<svg width="470" height="44" viewBox="0 0 470 44" fill="none" xmlns="http://www.w3.org/2000/svg">
<path fill-rule="evenodd" clip-rule="evenodd" d="M462.964 28.2545V35.0757H434.584V0.515152H462.964V7.56368H470V28.2545H462.964ZM455.693 7.79105H448.656V28.4819H455.693V7.79105ZM391.896 0.74252H420.276V7.79105H406.204V14.6122H420.276V21.4334H406.204V28.2545H420.276V35.0757H391.896V0.74252ZM370.553 35.303H356.246V7.79105H349.209V0.74252H377.589V7.79105H370.553V35.303ZM320.829 0.74252H335.136V35.303H320.829V0.74252ZM292.215 28.2545H285.178V21.4334H278.142V35.303H263.835V0.74252H278.142V7.79105H285.178V14.6122H292.215V0.74252H306.522V35.303H292.215V28.2545ZM242.491 35.303H221.147V28.4819H214.111V0.969889H228.418V28.4819H235.455V0.969889H249.762V28.4819H242.726V35.303H242.491Z" fill="white"/>
<path fill-rule="evenodd" clip-rule="evenodd" d="M170.129 44V36.8713H198.444V44H170.129ZM127.538 36.8713V29.7427H148.833V36.8713H127.538ZM148.833 22.3764H155.854V29.5051H148.833V22.3764ZM134.792 15.2477H149.067V22.3764H134.792V15.2477ZM127.538 8.11905H134.558V15.2477H127.538V8.11905ZM156.088 0.752771V8.11905H134.792V0.752771H156.088ZM99.2222 29.5051V15.0101H106.243V29.5051H99.2222ZM92.4358 36.8713V29.7427H99.2222V36.8713H92.4358ZM85.1813 15.2477H92.4358V29.7427H85.1813V15.2477ZM77.9269 0.752771H84.9473V15.2477H77.9269V0.752771ZM106.477 0.752771H113.497V15.2477H106.477V0.752771ZM42.5907 0.752771H63.886V8.11905H49.8451V15.2477H63.886V22.3764H49.8451V29.5051H63.886V36.6337H42.5907V0.752771ZM21.2953 8.11905H28.3158V29.7427H21.2953V8.11905ZM7.02044 29.5051H21.2953V36.6337H0V0.515152H21.2953V7.88144H7.02044V29.5051Z" fill="#F50D5A"/>
</svg>
