<svg width="50" height="43" viewBox="0 0 50 43" fill="none" xmlns="http://www.w3.org/2000/svg">
<path fill-rule="evenodd" clip-rule="evenodd" d="M36.6 3.4V6.7H39.9V10H43.2V13.2V16.4V19.5H39.9V22.8H36.6V26.1H33.3V29.4H30V32.7H26.7V36H23.8V32.7H20.5V29.4H17.2V26.1H13.9V22.8H10.6V19.5H6.9V16.4V13.2V10H10.2V6.7H13.5V3.4H16.4V6.7H19.7V10H23.2H26.5H30V6.7H33.3V3.4H36.6ZM40.9 0H30.7V3.2H26.7V6.5H23.4V3.2H20.5V0H10.2V3.2H6.7V6.5H3.3V9.8H0V16.4H3.3V23H6.6V26.3H10.1V29.6H13.2V33.6H16.5V36.2H20.3V39.5H23.2V42.8H26.5V39.5H30.5V36.2H33.2V33.6H36.5V29.6H40.7V26.3H43.2V23H46.5V16.4H49.8V9.8H46.5V6.5H43.2V3.2H40.7V0H40.9Z" fill="white"/>
</svg>
